<svg width="16" height="17" viewBox="0 0 16 17" fill="none" xmlns="http://www.w3.org/2000/svg">
<g clip-path="url(#clip0_1432_18685)">
<path d="M14.592 11.5094V13.5094C14.5928 13.695 14.5547 13.8788 14.4803 14.0489C14.406 14.219 14.2969 14.3717 14.16 14.4973C14.0232 14.6228 13.8617 14.7183 13.6858 14.7778C13.5099 14.8373 13.3236 14.8594 13.1387 14.8427C11.0872 14.6198 9.11666 13.9188 7.38533 12.796C5.77455 11.7725 4.40889 10.4068 3.38533 8.79602C2.25865 7.05682 1.55749 5.07668 1.33866 3.01602C1.322 2.83166 1.34391 2.64586 1.403 2.47044C1.46208 2.29501 1.55704 2.13381 1.68184 1.9971C1.80664 1.86039 1.95853 1.75116 2.12786 1.67637C2.29718 1.60158 2.48022 1.56286 2.66533 1.56269H4.66533C4.98887 1.5595 5.30252 1.67407 5.54784 1.88504C5.79315 2.09601 5.95338 2.38898 5.99866 2.70935C6.08308 3.3494 6.23963 3.97784 6.46533 4.58269C6.55503 4.8213 6.57444 5.08063 6.52127 5.32994C6.4681 5.57925 6.34457 5.80809 6.16533 5.98935L5.31866 6.83602C6.2677 8.50505 7.64963 9.88698 9.31866 10.836L10.1653 9.98935C10.3466 9.81011 10.5754 9.68659 10.8247 9.63342C11.0741 9.58025 11.3334 9.59966 11.572 9.68935C12.1768 9.91505 12.8053 10.0716 13.4453 10.156C13.7692 10.2017 14.0649 10.3648 14.2764 10.6144C14.4878 10.8639 14.6001 11.1824 14.592 11.5094Z" stroke="white" stroke-width="1.5" stroke-linecap="round" stroke-linejoin="round"/>
</g>
<defs>
<clipPath id="clip0_1432_18685">
<rect width="16" height="16" fill="white" transform="translate(0 0.229248)"/>
</clipPath>
</defs>
</svg>
