<svg width="35" height="35" viewBox="0 0 35 35" fill="none" xmlns="http://www.w3.org/2000/svg">
<g clip-path="url(#clip0_1207_17432)">
<path fill-rule="evenodd" clip-rule="evenodd" d="M3.29761 8.49571C3.29761 8.15348 3.43356 7.82526 3.67555 7.58327C3.91755 7.34127 4.24576 7.20532 4.58799 7.20532H29.5354C29.8777 7.20532 30.2059 7.34127 30.4479 7.58327C30.6899 7.82526 30.8258 8.15348 30.8258 8.49571C30.8258 8.83794 30.6899 9.16615 30.4479 9.40815C30.2059 9.65014 29.8777 9.78609 29.5354 9.78609H4.58799C4.24576 9.78609 3.91755 9.65014 3.67555 9.40815C3.43356 9.16615 3.29761 8.83794 3.29761 8.49571ZM3.29761 17.5284C3.29761 17.1862 3.43356 16.858 3.67555 16.616C3.91755 16.374 4.24576 16.238 4.58799 16.238H29.5354C29.8777 16.238 30.2059 16.374 30.4479 16.616C30.6899 16.858 30.8258 17.1862 30.8258 17.5284C30.8258 17.8706 30.6899 18.1988 30.4479 18.4408C30.2059 18.6828 29.8777 18.8188 29.5354 18.8188H4.58799C4.24576 18.8188 3.91755 18.6828 3.67555 18.4408C3.43356 18.1988 3.29761 17.8706 3.29761 17.5284ZM3.29761 26.5611C3.29761 26.2189 3.43356 25.8906 3.67555 25.6487C3.91755 25.4067 4.24576 25.2707 4.58799 25.2707H29.5354C29.8777 25.2707 30.2059 25.4067 30.4479 25.6487C30.6899 25.8906 30.8258 26.2189 30.8258 26.5611C30.8258 26.9033 30.6899 27.2315 30.4479 27.4735C30.2059 27.7155 29.8777 27.8515 29.5354 27.8515H4.58799C4.24576 27.8515 3.91755 27.7155 3.67555 27.4735C3.43356 27.2315 3.29761 26.9033 3.29761 26.5611Z" fill="white"/>
</g>
<defs>
<clipPath id="clip0_1207_17432">
<rect width="34.4103" height="34.4103" fill="white" transform="translate(0.0615234 0.52832)"/>
</clipPath>
</defs>
</svg>
