<svg width="30" height="31" viewBox="0 0 30 31" fill="none" xmlns="http://www.w3.org/2000/svg">
<path d="M9.75 2.72925H20.25C24.25 2.72925 27.5 5.97925 27.5 9.97925V20.4792C27.5 22.4021 26.7362 24.2461 25.3765 25.6058C24.0169 26.9654 22.1728 27.7292 20.25 27.7292H9.75C5.75 27.7292 2.5 24.4792 2.5 20.4792V9.97925C2.5 8.05643 3.26384 6.21236 4.62348 4.85272C5.98311 3.49309 7.82718 2.72925 9.75 2.72925ZM9.5 5.22925C8.30653 5.22925 7.16193 5.70335 6.31802 6.54727C5.47411 7.39118 5 8.53577 5 9.72925V20.7292C5 23.2167 7.0125 25.2292 9.5 25.2292H20.5C21.6935 25.2292 22.8381 24.7551 23.682 23.9112C24.5259 23.0673 25 21.9227 25 20.7292V9.72925C25 7.24175 22.9875 5.22925 20.5 5.22925H9.5ZM21.5625 7.10425C21.9769 7.10425 22.3743 7.26887 22.6674 7.56189C22.9604 7.85492 23.125 8.25235 23.125 8.66675C23.125 9.08115 22.9604 9.47858 22.6674 9.7716C22.3743 10.0646 21.9769 10.2292 21.5625 10.2292C21.1481 10.2292 20.7507 10.0646 20.4576 9.7716C20.1646 9.47858 20 9.08115 20 8.66675C20 8.25235 20.1646 7.85492 20.4576 7.56189C20.7507 7.26887 21.1481 7.10425 21.5625 7.10425ZM15 8.97925C16.6576 8.97925 18.2473 9.63773 19.4194 10.8098C20.5915 11.9819 21.25 13.5716 21.25 15.2292C21.25 16.8869 20.5915 18.4766 19.4194 19.6487C18.2473 20.8208 16.6576 21.4792 15 21.4792C13.3424 21.4792 11.7527 20.8208 10.5806 19.6487C9.40848 18.4766 8.75 16.8869 8.75 15.2292C8.75 13.5716 9.40848 11.9819 10.5806 10.8098C11.7527 9.63773 13.3424 8.97925 15 8.97925ZM15 11.4792C14.0054 11.4792 13.0516 11.8743 12.3483 12.5776C11.6451 13.2809 11.25 14.2347 11.25 15.2292C11.25 16.2238 11.6451 17.1776 12.3483 17.8809C13.0516 18.5842 14.0054 18.9792 15 18.9792C15.9946 18.9792 16.9484 18.5842 17.6517 17.8809C18.3549 17.1776 18.75 16.2238 18.75 15.2292C18.75 14.2347 18.3549 13.2809 17.6517 12.5776C16.9484 11.8743 15.9946 11.4792 15 11.4792Z" fill="url(#paint0_linear_1460_47)"/>
<defs>
<linearGradient id="paint0_linear_1460_47" x1="2.03608" y1="27.7292" x2="27.9881" y2="27.047" gradientUnits="userSpaceOnUse">
<stop offset="0.1" stop-color="#7B4CDB"/>
<stop offset="1" stop-color="#BDA5ED"/>
</linearGradient>
</defs>
</svg>
