<svg width="30" height="31" viewBox="0 0 30 31" fill="none" xmlns="http://www.w3.org/2000/svg">
<path d="M8.67505 6.47928C8.67472 7.14232 8.41101 7.77807 7.94193 8.24668C7.47286 8.71529 6.83684 8.97836 6.1738 8.97803C5.51076 8.9777 4.875 8.71399 4.4064 8.24491C3.93779 7.77584 3.67472 7.13982 3.67505 6.47678C3.67538 5.81374 3.93909 5.17798 4.40817 4.70938C4.87724 4.24077 5.51326 3.9777 6.1763 3.97803C6.83934 3.97836 7.47509 4.24207 7.9437 4.71114C8.41231 5.18022 8.67538 5.81624 8.67505 6.47928ZM8.75005 10.8293H3.75005V26.4793H8.75005V10.8293ZM16.6501 10.8293H11.6751V26.4793H16.6V18.2668C16.6 13.6918 22.5625 13.2668 22.5625 18.2668V26.4793H27.5V16.5668C27.5 8.85428 18.6751 9.14178 16.6 12.9293L16.6501 10.8293Z" fill="url(#paint0_linear_1460_1136)"/>
<defs>
<linearGradient id="paint0_linear_1460_1136" x1="3.23294" y1="26.4793" x2="27.9631" y2="25.7909" gradientUnits="userSpaceOnUse">
<stop offset="0.1" stop-color="#7B4CDB"/>
<stop offset="1" stop-color="#BDA5ED"/>
</linearGradient>
</defs>
</svg>
