<svg width="180" height="180" viewBox="0 0 180 180" fill="none" xmlns="http://www.w3.org/2000/svg">
<rect width="180" height="180" rx="16" fill="white"/>
<g clip-path="url(#clip0_1303_13089)">
<path d="M128.018 57.644C128.018 57.644 116.874 58.9786 110.158 65.3553C103.131 72.032 102.701 78.3597 102.701 78.3597C102.701 78.3597 106.199 77.3216 109.351 77.3275C112.5 77.3319 115.577 79.3093 115.577 79.3093C115.577 79.3093 114.017 76.6681 110.914 75.961C108.603 75.4331 106.23 76.3964 106.23 76.3964C106.23 76.3964 108.128 71.0569 111.206 67.731C115.029 63.5984 117.003 62.8003 119.379 61.5417C122.362 59.9625 128.018 57.644 128.018 57.644V57.644Z" fill="#2C2E67"/>
<path d="M131.176 58.8709C131.176 58.8709 125.407 59.923 120.022 68.0671C115.6 74.755 116.148 80.8895 116.148 80.8895C116.148 80.8895 121.035 77.7851 124.257 77.2832C128.355 76.6445 132.295 79.3383 132.295 79.3383C132.295 79.3383 129.936 75.3282 125.026 75.2408C122.827 75.2012 119.823 76.5713 119.823 76.5713C119.823 76.5713 119.847 73.2332 122.513 68.4635C125.335 63.4131 131.176 58.8708 131.176 58.8708V58.8709Z" fill="#EA5B2A"/>
<path d="M133.873 59.7723C133.873 59.7723 134.815 65.5532 134.635 69.9092C134.455 74.2653 133.962 79.5927 133.962 79.5927C133.962 79.5927 136.203 78.0893 139.87 78.1006C144.461 78.1138 147.637 80.0707 147.637 80.0707C147.637 80.0707 146.423 76.4635 141.318 75.6381C137.895 75.0844 136.065 76.0688 136.065 76.0688C136.065 76.0688 136.899 73.0773 136.578 69.0646C136.201 64.3381 133.873 59.7723 133.873 59.7723H133.873Z" fill="#158E44"/>
<path d="M137.325 59.4387C137.325 59.4387 141.828 62.9615 143.872 65.824C146.91 70.0787 147.921 75.1537 148.458 77.6653C148.911 79.7826 148.686 80.4593 148.686 80.4593C148.686 80.4593 151.643 77.8735 154.737 77.112C157.217 76.501 158.921 76.6297 160.464 76.9197C162.676 77.3369 164.372 78.1449 164.372 78.1449C164.372 78.1449 163.664 72.3487 159.015 67.3775C154.892 62.9698 152.268 61.6531 147.376 59.8753C143.442 58.4457 139.441 57.7583 139.441 57.7583C139.441 57.7583 144.89 59.7284 148.61 61.7518C152.002 63.5986 154.161 65.313 157.102 68.7616C160.571 72.8269 160.703 74.5525 160.703 74.5525C160.703 74.5525 157.725 73.7784 154.798 74.5525C151.869 75.3254 150.928 76.5052 150.928 76.5052C150.928 76.5052 150.349 73.3022 149.124 70.2544C148.007 67.473 146.133 64.8713 144 63.4095C142.503 62.3841 137.325 59.4386 137.325 59.4386L137.325 59.4387Z" fill="#E62129"/>
<path d="M136.408 56.0738C136.757 57.0369 136.214 58.1173 135.194 58.4866C134.174 58.8559 133.063 58.3739 132.715 57.4101C132.366 56.446 132.911 55.3651 133.931 54.9956C134.144 54.9183 134.362 54.8785 134.575 54.8726H134.691C135.453 54.895 136.146 55.348 136.408 56.0738H136.408Z" fill="#F39910"/>
<path d="M130.999 110.717H136.163V82.4203H130.999V110.717Z" fill="#F39910"/>
<path d="M138.933 110.717V82.4204H144.81L152.116 94.5534C154.005 97.702 155.642 100.977 156.943 104.041H157.028C156.692 100.263 156.566 96.6105 156.566 92.2861V82.4203H161.351V110.717H156.02L148.632 98.2897C146.826 95.1831 144.937 91.6983 143.551 88.5079L143.426 88.5497C143.635 92.2023 143.677 95.9387 143.677 100.599V110.717H138.933L138.933 110.717Z" fill="#F39910"/>
<path d="M38.0638 87.9402C36.0596 85.745 33.22 84.6469 29.5456 84.6469C26.1302 84.6469 23.4388 85.819 21.4722 88.1633C19.6162 90.3593 18.6882 93.1504 18.6882 96.5363C18.6882 99.9602 19.5969 102.732 21.4163 104.853C23.3464 107.161 26.0562 108.314 29.5456 108.314C32.9976 108.314 35.7623 107.161 37.8414 104.853C39.8823 102.658 40.9036 99.8852 40.9036 96.5363C40.9036 92.8898 39.9564 90.0245 38.0638 87.9402V87.9402ZM40.9036 110.323V105.411C38.4101 109.095 34.6329 110.937 29.5725 110.937C25.2554 110.937 21.8506 109.542 19.3579 106.751C17.0136 104.109 15.8414 100.704 15.8414 96.5363C15.8414 92.2942 17.0319 88.8525 19.4137 86.2098C21.9063 83.4189 25.3671 82.0235 29.7958 82.0235C34.7818 82.0235 38.4841 83.7915 40.9035 87.3261V72.4786H43.7502V110.323H40.9035L40.9036 110.323Z" fill="#158E44"/>
<path d="M66.7542 88.2752C64.7499 86.1174 61.9102 85.0377 58.2359 85.0377C54.8206 85.0377 52.1108 86.1915 50.1065 88.4983C48.2872 90.6569 47.3785 93.4106 47.3785 96.7595C47.3785 100.146 48.2872 102.881 50.1065 104.965C52.0366 107.197 54.7464 108.314 58.2359 108.314C61.6879 108.314 64.4439 107.217 66.5039 105.02C68.5638 102.825 69.594 100.072 69.594 96.7595C69.594 93.1872 68.6466 90.3594 66.7542 88.2752ZM69.594 110.379V105.467C67.1004 109.114 63.3231 110.937 58.2628 110.937C53.9457 110.937 50.5409 109.561 48.0483 106.807C45.7039 104.202 44.5317 100.853 44.5317 96.7594C44.5317 92.5547 45.7221 89.1497 48.1041 86.5447C50.5966 83.7913 54.0573 82.4141 58.4862 82.4141C63.4723 82.4141 67.1745 84.1819 69.594 87.7168V82.4141H72.4406V110.379H69.594V110.379Z" fill="#158E44"/>
<path d="M96.3857 110.323V92.5173C96.3857 90.0987 95.6042 88.219 94.0413 86.8796C92.5151 85.6514 90.4315 85.0375 87.7898 85.0375C84.664 85.0375 82.1985 85.9585 80.3939 87.8004C78.5885 89.6424 77.6867 92.0524 77.6867 95.0288V110.323H74.84V83.028H77.6867V86.7678C79.8443 83.8653 83.1934 82.4141 87.734 82.4141C91.0455 82.4141 93.743 83.1956 95.8274 84.7584C98.097 86.4704 99.2322 88.8889 99.2322 92.0148V110.323H96.3857V110.323Z" fill="#158E44"/>
<path d="M121.957 88.2752C119.952 86.1174 117.113 85.0377 113.438 85.0377C110.023 85.0377 107.313 86.1915 105.309 88.4983C103.49 90.6569 102.581 93.4106 102.581 96.7595C102.581 100.146 103.49 102.881 105.309 104.965C107.239 107.197 109.949 108.314 113.438 108.314C116.89 108.314 119.646 107.217 121.706 105.02C123.766 102.825 124.796 100.072 124.796 96.7595C124.796 93.1872 123.849 90.3594 121.957 88.2752H121.957ZM124.797 110.379V105.467C122.303 109.114 118.526 110.937 113.465 110.937C109.148 110.937 105.743 109.561 103.251 106.807C100.906 104.202 99.7344 100.853 99.7344 96.7594C99.7344 92.5547 100.925 89.1497 103.306 86.5447C105.799 83.7913 109.26 82.4141 113.689 82.4141C118.675 82.4141 122.377 84.1819 124.796 87.7168V82.4141H127.643V110.379H124.796L124.797 110.379Z" fill="#158E44"/>
</g>
<defs>
<clipPath id="clip0_1303_13089">
<rect width="148.531" height="56.0646" fill="white" transform="translate(15.8419 54.8726)"/>
</clipPath>
</defs>
</svg>
