<svg width="56" height="57" viewBox="0 0 56 57" fill="none" xmlns="http://www.w3.org/2000/svg">
<rect y="0.229248" width="56" height="56" rx="6.58824" fill="url(#paint0_linear_1486_1849)"/>
<g clip-path="url(#clip0_1486_1849)">
<path d="M37.6816 19.8805C37.6816 19.8805 34.8266 20.2225 33.1059 21.8562C31.3055 23.5669 31.1953 25.1881 31.1953 25.1881C31.1953 25.1881 32.0916 24.9221 32.8991 24.9236C33.7059 24.9247 34.4943 25.4314 34.4943 25.4314C34.4943 25.4314 34.0945 24.7547 33.2996 24.5735C32.7074 24.4382 32.0993 24.6851 32.0993 24.6851C32.0993 24.6851 32.5858 23.317 33.3743 22.4649C34.3537 21.4061 34.8595 21.2016 35.4684 20.8791C36.2326 20.4745 37.6816 19.8805 37.6816 19.8805Z" fill="#2C2E67"/>
<path d="M38.4909 20.1948C38.4909 20.1948 37.0126 20.4644 35.633 22.551C34.5002 24.2645 34.6405 25.8362 34.6405 25.8362C34.6405 25.8362 35.8926 25.0408 36.7181 24.9122C37.768 24.7486 38.7775 25.4388 38.7775 25.4388C38.7775 25.4388 38.1732 24.4114 36.9152 24.389C36.3517 24.3788 35.582 24.7298 35.582 24.7298C35.582 24.7298 35.5882 23.8746 36.2713 22.6525C36.9943 21.3586 38.4909 20.1948 38.4909 20.1948V20.1948Z" fill="#EA5B2A"/>
<path d="M39.1819 20.4258C39.1819 20.4258 39.4232 21.907 39.377 23.023C39.3309 24.1391 39.2045 25.504 39.2045 25.504C39.2045 25.504 39.7788 25.1188 40.7184 25.1217C41.8946 25.1251 42.7083 25.6265 42.7083 25.6265C42.7083 25.6265 42.3971 24.7023 41.0892 24.4908C40.2122 24.3489 39.7435 24.6011 39.7435 24.6011C39.7435 24.6011 39.957 23.8347 39.8749 22.8066C39.7782 21.5956 39.1819 20.4258 39.1819 20.4258H39.1819Z" fill="#158E44"/>
<path d="M40.0664 20.3403C40.0664 20.3403 41.2202 21.2429 41.7436 21.9763C42.522 23.0664 42.7812 24.3666 42.9187 25.0101C43.0349 25.5526 42.9771 25.726 42.9771 25.726C42.9771 25.726 43.7348 25.0635 44.5275 24.8684C45.1629 24.7118 45.5994 24.7448 45.9948 24.8191C46.5615 24.926 46.9962 25.133 46.9962 25.133C46.9962 25.133 46.8146 23.648 45.6234 22.3743C44.5673 21.245 43.8948 20.9076 42.6416 20.4521C41.6335 20.0859 40.6085 19.9098 40.6085 19.9098C40.6085 19.9098 42.0046 20.4145 42.9576 20.9329C43.8267 21.4061 44.38 21.8453 45.1334 22.7289C46.0222 23.7705 46.056 24.2126 46.056 24.2126C46.056 24.2126 45.2931 24.0143 44.543 24.2126C43.7926 24.4106 43.5517 24.7129 43.5517 24.7129C43.5517 24.7129 43.4033 23.8923 43.0893 23.1114C42.8031 22.3988 42.3231 21.7322 41.7765 21.3576C41.3929 21.0949 40.0664 20.3403 40.0664 20.3403L40.0664 20.3403Z" fill="#E62129"/>
<path d="M39.8314 19.4782C39.9208 19.7249 39.7815 20.0017 39.5202 20.0964C39.2589 20.191 38.9744 20.0675 38.8852 19.8206C38.7958 19.5735 38.9352 19.2966 39.1966 19.2019C39.2513 19.1821 39.307 19.1719 39.3618 19.1704H39.3914C39.5865 19.1761 39.7641 19.2922 39.8314 19.4782H39.8314Z" fill="#F39910"/>
<path d="M38.4453 33.4782H39.7683V26.2284H38.4453V33.4782Z" fill="#F39910"/>
<path d="M40.4783 33.4782V26.2284H41.984L43.8559 29.337C44.3398 30.1437 44.7593 30.9827 45.0927 31.768H45.1143C45.0282 30.7999 44.9959 29.8641 44.9959 28.7561V26.2284H46.2221V33.4782H44.856L42.9631 30.2943C42.5005 29.4984 42.0165 28.6055 41.6615 27.7881L41.6293 27.7988C41.6828 28.7347 41.6938 29.692 41.6938 30.8859V33.4782H40.4783L40.4783 33.4782Z" fill="#F39910"/>
<path d="M14.6347 27.6426C14.1212 27.0802 13.3937 26.7989 12.4523 26.7989C11.5772 26.7989 10.8877 27.0992 10.3838 27.6998C9.90828 28.2624 9.67052 28.9775 9.67052 29.845C9.67052 30.7223 9.90336 31.4324 10.3695 31.9759C10.864 32.5671 11.5583 32.8625 12.4523 32.8625C13.3367 32.8625 14.0451 32.5671 14.5778 31.9759C15.1007 31.4134 15.3623 30.703 15.3623 29.845C15.3623 28.9108 15.1196 28.1767 14.6347 27.6426ZM15.3623 33.3774V32.1189C14.7235 33.0628 13.7557 33.5347 12.4592 33.5347C11.3531 33.5347 10.4808 33.1772 9.84213 32.4621C9.24149 31.7853 8.94116 30.9129 8.94116 29.845C8.94116 28.7582 9.24618 27.8764 9.8564 27.1993C10.495 26.4842 11.3817 26.1267 12.5164 26.1267C13.7939 26.1267 14.7424 26.5797 15.3623 27.4853V23.6812H16.0916V33.3773H15.3623L15.3623 33.3774Z" fill="#158E44"/>
<path d="M21.9854 27.7285C21.4718 27.1756 20.7443 26.899 19.8029 26.899C18.9278 26.899 18.2336 27.1946 17.72 27.7856C17.2539 28.3387 17.0211 29.0442 17.0211 29.9022C17.0211 30.7699 17.2539 31.4707 17.72 32.0045C18.2146 32.5765 18.9088 32.8625 19.8029 32.8625C20.6873 32.8625 21.3934 32.5815 21.9212 32.0188C22.449 31.4563 22.7129 30.7509 22.7129 29.9022C22.7129 28.987 22.4702 28.2625 21.9854 27.7285ZM22.7129 33.3916V32.1331C22.074 33.0676 21.1063 33.5347 19.8098 33.5347C18.7037 33.5347 17.8313 33.182 17.1927 32.4764C16.5921 31.8091 16.2917 30.951 16.2917 29.9022C16.2917 28.8249 16.5967 27.9525 17.207 27.2851C17.8456 26.5796 18.7323 26.2268 19.867 26.2268C21.1445 26.2268 22.093 26.6797 22.7129 27.5854V26.2268H23.4423V33.3916H22.7129V33.3916Z" fill="#158E44"/>
<path d="M29.5771 33.3773V28.8153C29.5771 28.1957 29.3769 27.7141 28.9764 27.3709C28.5854 27.0562 28.0516 26.899 27.3748 26.899C26.5739 26.899 25.9422 27.1349 25.4798 27.6068C25.0173 28.0788 24.7862 28.6962 24.7862 29.4588V33.3773H24.0569V26.3841H24.7862V27.3423C25.3391 26.5986 26.1971 26.2268 27.3605 26.2268C28.2089 26.2268 28.9 26.4271 29.4341 26.8274C30.0155 27.2661 30.3064 27.8857 30.3064 28.6866V33.3773H29.5771Z" fill="#158E44"/>
<path d="M36.1288 27.7285C35.6154 27.1756 34.8878 26.899 33.9464 26.899C33.0714 26.899 32.3771 27.1946 31.8636 27.7856C31.3974 28.3387 31.1646 29.0442 31.1646 29.9022C31.1646 30.7699 31.3974 31.4707 31.8636 32.0045C32.358 32.5765 33.0524 32.8625 33.9464 32.8625C34.8308 32.8625 35.5369 32.5815 36.0647 32.0188C36.5925 31.4563 36.8564 30.7509 36.8564 29.9022C36.8564 28.987 36.6138 28.2625 36.1288 27.7285H36.1288ZM36.8564 33.3916V32.1331C36.2176 33.0676 35.2498 33.5347 33.9533 33.5347C32.8472 33.5347 31.9749 33.182 31.3362 32.4764C30.7356 31.8091 30.4353 30.951 30.4353 29.9022C30.4353 28.8249 30.7403 27.9525 31.3505 27.2851C31.9892 26.5796 32.8758 26.2268 34.0105 26.2268C35.288 26.2268 36.2365 26.6797 36.8564 27.5854V26.2268H37.5858V33.3916H36.8564L36.8564 33.3916Z" fill="#158E44"/>
</g>
<defs>
<linearGradient id="paint0_linear_1486_1849" x1="1.2964e-06" y1="56.2292" x2="73" y2="-30.7708" gradientUnits="userSpaceOnUse">
<stop stop-color="white"/>
<stop offset="0.384642" stop-color="#F8F5FD"/>
<stop offset="1" stop-color="#B398EA"/>
</linearGradient>
<clipPath id="clip0_1486_1849">
<rect width="38.0551" height="14.3643" fill="white" transform="translate(8.94116 19.1704)"/>
</clipPath>
</defs>
</svg>
