<svg width="114" height="40" viewBox="0 0 114 40" fill="none" xmlns="http://www.w3.org/2000/svg">
<path fill-rule="evenodd" clip-rule="evenodd" d="M3.44511 29.547C3.68742 28.9118 3.52588 15.811 3.52588 13.2702C3.52588 11.5234 3.76819 9.53844 1.8297 9.53844C-0.108793 9.45904 0.0527481 11.444 0.0527481 13.1114C0.0527481 15.4934 -0.108793 29.0706 0.133519 29.3882C0.133519 31.135 3.2028 31.3732 3.36434 29.4676L3.44511 29.547Z" fill="white"/>
<path fill-rule="evenodd" clip-rule="evenodd" d="M7.07959 17.6363V22.1621V27.7994C7.07959 29.4668 7.07959 31.0548 7.07959 32.7221C7.07959 34.3895 7.07959 35.9775 8.93731 35.8981C10.6335 35.8187 10.5527 34.1513 10.5527 32.5633C10.5527 30.896 10.472 29.1492 10.5527 27.4818V21.8445V17.3187V10.6492C10.5527 9.29945 10.5527 7.94967 10.5527 6.59989C10.5527 5.3295 9.98733 4.29732 8.695 4.45612C7.40267 4.53551 7.07959 5.5677 7.07959 6.91748C7.07959 8.26727 7.07959 9.69645 7.07959 11.0462V17.6363Z" fill="white"/>
<path fill-rule="evenodd" clip-rule="evenodd" d="M14.592 16.0489C14.6728 23.2742 14.5113 30.8171 14.592 37.963C14.592 39.0746 14.9959 39.7098 15.8844 39.948C16.9344 40.1862 17.419 39.551 18.0652 39.154C18.7113 38.6776 19.3575 38.36 19.9229 37.8836C21.6191 36.7721 30.5846 30.8171 31.3115 30.1819C31.7961 30.0231 32.0385 29.8643 32.2808 29.5467V26.4502L32.2 22.1626L32.1192 15.1755L32.0385 9.61761L27.8384 6.99744C26.4653 6.04466 24.9306 5.17127 23.5576 4.29788C22.1037 3.42449 20.7306 2.4717 19.2767 1.59832C18.0652 0.883724 15.9651 -1.10125 14.6728 0.804326C14.1074 1.43952 14.3497 6.12406 14.3497 7.39444V11.682V15.9695L14.592 16.0489ZM24.2845 16.4459C25.4153 16.4459 26.3037 17.6369 26.3037 19.0661C26.3037 20.4953 25.4153 21.6863 24.2845 21.6863C23.1537 21.6863 22.2652 20.4953 22.2652 19.0661C22.2652 17.6369 23.1537 16.4459 24.2845 16.4459Z" fill="white"/>
<path d="M51.2128 27.3982L47.8356 16.3936H47.7493C47.8708 18.6322 47.9315 20.1257 47.9315 20.8741V27.3982H45.2739V13.3713H49.3227L52.6423 24.0978H52.6999L56.221 13.3713H60.2698V27.3982H57.4971V20.759C57.4971 20.4455 57.5003 20.0842 57.5067 19.6748C57.5194 19.2654 57.5642 18.1781 57.641 16.4127H57.5546L53.9376 27.3982H51.2128Z" fill="white"/>
<path d="M68.2906 27.5901C66.6404 27.5901 65.3484 27.1104 64.4146 26.151C63.4871 25.1851 63.0234 23.8579 63.0234 22.1693C63.0234 20.4359 63.4551 19.0736 64.3186 18.0821C65.1821 17.0907 66.3686 16.595 67.8781 16.595C69.2789 16.595 70.3854 17.0204 71.1977 17.8711C72.01 18.7218 72.4162 19.8923 72.4162 21.3826V22.6011H65.3452C65.3772 23.6308 65.6554 24.424 66.1799 24.9804C66.7044 25.5305 67.4432 25.8056 68.3962 25.8056C69.023 25.8056 69.6051 25.748 70.1423 25.6329C70.686 25.5113 71.2681 25.313 71.8885 25.038V26.8705C71.3384 27.1328 70.782 27.3183 70.2191 27.427C69.6562 27.5357 69.0134 27.5901 68.2906 27.5901ZM67.8781 18.3028C67.1617 18.3028 66.5861 18.5299 66.1511 18.984C65.7226 19.4381 65.4667 20.1001 65.3836 20.97H70.1999C70.1871 20.0938 69.976 19.4317 69.5667 18.984C69.1573 18.5299 68.5945 18.3028 67.8781 18.3028Z" fill="white"/>
<path d="M78.5565 27.5901C77.2325 27.5901 76.1995 27.1104 75.4576 26.151C74.7156 25.1915 74.3447 23.8451 74.3447 22.1118C74.3447 20.372 74.7188 19.0192 75.4672 18.0534C76.2219 17.0811 77.2645 16.595 78.5949 16.595C79.9893 16.595 81.0511 17.1099 81.7802 18.1397H81.8954C81.7866 17.3786 81.7323 16.7773 81.7323 16.336V12.4695H83.9965V27.3982H82.2312L81.8378 26.007H81.7323C81.0095 27.0624 79.9509 27.5901 78.5565 27.5901ZM79.161 25.7672C80.0884 25.7672 80.7632 25.5081 81.1854 24.99C81.6075 24.4656 81.825 23.6181 81.8378 22.4476V22.1309C81.8378 20.7941 81.6203 19.8443 81.1854 19.2814C80.7504 18.7186 80.0692 18.4371 79.1418 18.4371C78.3487 18.4371 77.7378 18.7601 77.3093 19.4062C76.8807 20.0458 76.6665 20.9604 76.6665 22.1501C76.6665 23.327 76.8743 24.2257 77.2901 24.8461C77.7059 25.4602 78.3295 25.7672 79.161 25.7672Z" fill="white"/>
<path d="M89.4749 27.3982H87.2202V16.7869H89.4749V27.3982ZM87.0859 13.9758C87.0859 13.5728 87.1946 13.2626 87.4121 13.0451C87.636 12.8277 87.9526 12.7189 88.3619 12.7189C88.7585 12.7189 89.0655 12.8277 89.283 13.0451C89.5068 13.2626 89.6188 13.5728 89.6188 13.9758C89.6188 14.3596 89.5068 14.6634 89.283 14.8872C89.0655 15.1047 88.7585 15.2135 88.3619 15.2135C87.9526 15.2135 87.636 15.1047 87.4121 14.8872C87.1946 14.6634 87.0859 14.3596 87.0859 13.9758Z" fill="white"/>
<path d="M99.3474 27.3982L98.8965 25.9207H98.8197C98.308 26.5667 97.7931 27.008 97.275 27.2447C96.7569 27.475 96.0917 27.5901 95.2794 27.5901C94.2368 27.5901 93.4213 27.3087 92.8329 26.7458C92.2508 26.1829 91.9598 25.3866 91.9598 24.3568C91.9598 23.2631 92.3659 22.438 93.1783 21.8815C93.9906 21.325 95.2282 21.0212 96.8913 20.97L98.7238 20.9125V20.3464C98.7238 19.6684 98.5639 19.1631 98.244 18.8305C97.9306 18.4915 97.4413 18.322 96.7761 18.322C96.2324 18.322 95.7112 18.402 95.2122 18.5619C94.7133 18.7218 94.2336 18.9105 93.7731 19.1279L93.0439 17.5161C93.6196 17.2155 94.2496 16.9884 94.934 16.8349C95.6184 16.675 96.2644 16.595 96.8721 16.595C98.2217 16.595 99.2387 16.8893 99.923 17.4777C100.614 18.0662 100.959 18.9904 100.959 20.2505V27.3982H99.3474ZM95.9894 25.8631C96.8081 25.8631 97.4637 25.6361 97.9562 25.1819C98.4551 24.7214 98.7046 24.0786 98.7046 23.2535V22.3324L97.3422 22.39C96.2804 22.4284 95.5065 22.6075 95.0204 22.9273C94.5406 23.2407 94.3008 23.7236 94.3008 24.376C94.3008 24.8493 94.4415 25.2171 94.7229 25.4794C95.0044 25.7352 95.4265 25.8631 95.9894 25.8631Z" fill="white"/>
<path d="M113.441 27.3982H111.177V20.8741C111.177 20.0554 111.011 19.4445 110.678 19.0416C110.352 18.6386 109.831 18.4371 109.114 18.4371C108.161 18.4371 107.464 18.7186 107.023 19.2814C106.581 19.8443 106.361 20.7877 106.361 22.1118V27.3982H104.106V16.7869H105.872L106.188 18.1781H106.303C106.623 17.6728 107.077 17.2826 107.666 17.0076C108.254 16.7325 108.907 16.595 109.623 16.595C112.169 16.595 113.441 17.8903 113.441 20.4807V27.3982Z" fill="white"/>
</svg>
