<svg width="180" height="180" viewBox="0 0 180 180" fill="none" xmlns="http://www.w3.org/2000/svg">
<path fill-rule="evenodd" clip-rule="evenodd" d="M93.9004 104.705L86.1679 104.742C85.7772 103.435 86.0243 82.6275 86.0267 78.3137C86.0283 75.0275 85.414 73.4421 83.9369 71.3656C79.7643 65.5009 67.7674 59.9602 66.1082 53.3808C65.5732 53.9786 65.3316 55.142 64.4075 56.4662C63.6403 57.5652 63.1351 58.0249 62.2376 58.9318C57.7591 63.4582 50.5576 67.2166 47.3382 72.4702C45.6437 75.2354 45.9755 76.784 45.9755 80.4223C45.9755 84.3753 45.7881 106.904 46.0556 108.817L73.9129 108.823L73.9537 68.3195C75.5226 68.911 79.7078 72.8067 80.5401 73.9159C82.6998 76.7949 82.0588 80.3745 82.0588 84.6349C82.0588 88.7165 81.8478 106.33 82.1145 108.79L97.9318 108.822C98.2166 105.058 97.9679 89.632 97.9679 84.6357C97.9679 79.7092 97.316 76.9714 99.4827 74.0548C100.353 72.8836 104.614 68.8082 106.057 68.3219L106.081 108.782L133.955 108.824C134.224 105.449 134.003 85.6532 134.003 80.6326C134.003 77.053 134.247 75.1993 132.698 72.5337C128.04 64.5148 117.292 62.1771 114.049 53.2412C112.477 55.9884 113.654 55.3703 110.582 58.6133C104.103 65.4515 93.9875 68.8977 93.9922 77.8932C93.9938 81.1582 94.1797 103.454 93.8981 104.704L93.9004 104.705ZM49.9387 78.105C49.9395 86.6204 49.7951 96.3149 49.9654 104.687C52.3447 104.787 68.6264 104.876 69.9717 104.601L69.9898 66.0799C69.9921 64.7125 69.8839 64.8349 69.0806 64.1069C67.9454 63.08 67.1594 62.1701 66.0337 61.0522L61.8415 65.0687C57.7528 68.6113 49.9387 73.184 49.9387 78.105ZM110.056 64.8051L110.042 104.666C114.992 104.801 125.548 104.875 130.08 104.667L130.092 79.1585C130.092 74.0877 127.317 72.2223 123.154 69.0177C121.434 67.6935 120.075 66.64 118.434 65.315C116.692 63.9092 115.638 62.5458 114.067 61.0577C113.21 61.5527 112.045 63.4385 110.056 64.8059V64.8051Z" fill="#BD8A2E"/>
<path fill-rule="evenodd" clip-rule="evenodd" d="M73.9215 60.521C74.9021 44.5767 70.4329 48.1993 84.1141 37.1979C85.2304 36.3005 86.3294 35.4886 87.2065 34.6037C87.8427 33.9612 89.6109 32.033 90.0502 31.7867C91.718 33.2042 92.5966 34.5409 95.8286 37.1438C97.8321 38.7567 100.174 40.4503 102.034 42.1064C103.92 43.7859 106.028 45.4765 106.075 49.2341C106.122 52.994 105.957 56.8638 106.097 60.6034C106.914 60.23 107.55 59.5671 108.237 59.0015C111.047 56.685 110.04 56.6214 110.039 49.4529C110.039 43.793 107.93 41.8153 105.226 39.1183C100.479 34.384 92.4224 30.8555 90.0204 24C89.1261 25.5776 89.1873 26.6256 87.2128 28.7107C82.4644 33.7274 74.786 37.6992 71.3484 43.185C70.0117 45.318 69.9748 46.5629 69.9756 49.4537C69.9756 50.9952 69.7669 55.8636 70.0093 57.0278C70.1976 57.9315 73.0029 60.1759 73.9223 60.521H73.9215Z" fill="#BD8A2E"/>
<path fill-rule="evenodd" clip-rule="evenodd" d="M102.543 118.764C102.544 122.181 102.829 136.034 102.182 138.289C101.692 139.999 101.296 139.832 99.8106 140.463C100.397 140.776 105.074 140.688 106.106 140.539C104.709 139.913 104.284 139.753 103.764 138.094C103.021 135.73 103.191 122.563 103.33 119.869L113.962 140.84C114.785 139.658 116.019 136.335 116.636 134.84L124.446 116.565C124.707 120.081 124.506 133.439 124.504 137.935C124.504 140.224 123.415 139.73 121.743 140.463C122.199 140.722 131.299 140.721 132.452 140.549C129.946 139.119 129.636 141.287 129.638 135.618V119.607C129.637 113.701 129.781 115.842 132.366 114.365L124.991 114.33C124.164 114.331 123.131 117.522 122.573 118.883C121.864 120.616 121.178 122.23 120.458 123.924C119.068 127.195 117.31 130.884 116.239 134.021C115.266 133.345 111.551 125.131 111.019 124.111C110.412 122.947 106.422 114.481 105.819 114.333L99.7393 114.338C100.375 115.258 102.541 116.786 102.541 118.765L102.543 118.764Z" fill="black"/>
<path fill-rule="evenodd" clip-rule="evenodd" d="M81.6478 115.901C80.5378 120.436 78.2275 124.627 76.4248 128.968C75.7266 130.649 73.0531 137.004 72.1533 138.396C71.3234 139.682 71.0684 139.688 69.6462 140.463C71.1304 140.754 74.6087 140.66 76.2404 140.549C74.8017 139.843 73.5654 139.915 73.6564 137.96C73.7035 136.954 74.5476 135.037 75.0637 134.245L89.3003 134.215C89.7749 135.202 90.6425 137.169 90.5343 138.361C90.3742 140.117 88.7951 140.093 87.365 140.575L99.027 140.584C96.4311 139.205 96.4547 138.581 95.0042 134.854C94.3852 133.263 86.9132 113.875 86.4401 113.365L81.6486 115.899L81.6478 115.901ZM75.3305 133.508L88.9951 133.547L82.5201 117.237C81.9804 117.78 75.7031 132.15 75.3297 133.508H75.3305Z" fill="black"/>
<path fill-rule="evenodd" clip-rule="evenodd" d="M50.8706 132.562C50.145 133.016 47.9908 136.707 47.5476 137.514C48.6357 139.117 52.1375 140.516 54.8393 140.911C58.189 141.401 61.5481 141.02 64.0842 139.597C69.0962 136.786 69.8501 129.45 63.3006 126.315C59.5884 124.537 53.9285 124.637 52.2999 121.095C51.652 119.686 51.7179 117.78 52.3572 116.508C53.6508 113.934 57.399 113.815 60.176 115.32C62.7922 116.739 63.8795 118.602 64.1023 122.362L67.4959 117.314C65.4594 114.048 55.739 112.218 50.9734 115.742C46.3615 119.153 47.2879 126.069 53.8336 128.825C56.3635 129.89 59.7391 130.277 61.9709 131.437C63.1813 132.066 64.1235 133.005 64.3196 134.562C65.4257 143.338 51.0307 142.284 50.8691 132.562H50.8706Z" fill="black"/>
<path d="M16.9528 153.688C16.6035 153.688 16.2686 153.642 15.9483 153.551C15.6281 153.455 15.3702 153.332 15.1747 153.183L15.5178 152.422C15.705 152.555 15.9255 152.665 16.1792 152.752C16.4371 152.835 16.697 152.877 16.9591 152.877C17.1587 152.877 17.3189 152.858 17.4395 152.821C17.5643 152.779 17.6558 152.723 17.714 152.652C17.7723 152.582 17.8014 152.501 17.8014 152.409C17.8014 152.293 17.7556 152.201 17.6641 152.135C17.5726 152.064 17.452 152.008 17.3022 151.966C17.1525 151.92 16.9861 151.879 16.8031 151.841C16.6242 151.8 16.4433 151.75 16.2603 151.692C16.0814 151.633 15.9171 151.558 15.7674 151.467C15.6177 151.375 15.495 151.255 15.3993 151.105C15.3078 150.955 15.262 150.764 15.262 150.531C15.262 150.281 15.3286 150.055 15.4617 149.851C15.5989 149.643 15.8028 149.479 16.0731 149.358C16.3476 149.233 16.6908 149.171 17.1026 149.171C17.3771 149.171 17.6475 149.204 17.9137 149.271C18.1799 149.333 18.4149 149.429 18.6187 149.558L18.3067 150.325C18.1029 150.209 17.8991 150.123 17.6953 150.069C17.4915 150.011 17.2918 149.982 17.0963 149.982C16.9009 149.982 16.7407 150.005 16.6159 150.051C16.4911 150.096 16.4017 150.157 16.3476 150.232C16.2936 150.302 16.2665 150.385 16.2665 150.481C16.2665 150.593 16.3123 150.685 16.4038 150.756C16.4953 150.822 16.6159 150.876 16.7657 150.918C16.9154 150.959 17.0797 151.001 17.2586 151.043C17.4416 151.084 17.6225 151.132 17.8014 151.186C17.9844 151.24 18.1508 151.313 18.3005 151.405C18.4502 151.496 18.5709 151.617 18.6624 151.766C18.758 151.916 18.8059 152.105 18.8059 152.334C18.8059 152.58 18.7372 152.804 18.6 153.008C18.4627 153.212 18.2568 153.376 17.9823 153.501C17.7119 153.626 17.3688 153.688 16.9528 153.688Z" fill="black"/>
<path d="M23.2962 151.005H25.3988V151.791H23.2962V151.005ZM23.371 152.802H25.7482V153.613H22.3665V149.246H25.6671V150.057H23.371V152.802Z" fill="black"/>
<path d="M29.4224 153.613V149.246H31.3129C31.7039 149.246 32.0408 149.31 32.3236 149.439C32.6065 149.564 32.8248 149.745 32.9787 149.982C33.1326 150.219 33.2096 150.502 33.2096 150.831C33.2096 151.155 33.1326 151.436 32.9787 151.673C32.8248 151.906 32.6065 152.085 32.3236 152.209C32.0408 152.334 31.7039 152.397 31.3129 152.397H29.9839L30.4332 151.954V153.613H29.4224ZM32.1988 153.613L31.107 152.028H32.1864L33.2907 153.613H32.1988ZM30.4332 152.066L29.9839 151.592H31.2567C31.5687 151.592 31.8016 151.525 31.9555 151.392C32.1094 151.255 32.1864 151.068 32.1864 150.831C32.1864 150.589 32.1094 150.402 31.9555 150.269C31.8016 150.136 31.5687 150.069 31.2567 150.069H29.9839L30.4332 149.589V152.066Z" fill="black"/>
<path d="M36.3064 153.613L38.253 149.246H39.2513L41.2041 153.613H40.1435L38.5463 149.757H38.9456L37.3421 153.613H36.3064ZM37.2797 152.677L37.548 151.91H39.7941L40.0686 152.677H37.2797Z" fill="black"/>
<path d="M44.5273 153.613V149.246H45.3633L47.2226 152.328H46.7796L48.6077 149.246H49.4375L49.45 153.613H48.5016L48.4954 150.699H48.6701L47.2101 153.151H46.7547L45.2635 150.699H45.4756V153.613H44.5273Z" fill="black"/>
<path d="M53.3562 153.613V149.246H55.49C56.039 149.246 56.4508 149.35 56.7253 149.558C57.004 149.766 57.1434 150.04 57.1434 150.381C57.1434 150.61 57.0872 150.81 56.9749 150.98C56.8626 151.147 56.7087 151.276 56.5132 151.367C56.3177 151.459 56.0931 151.504 55.8394 151.504L55.9579 151.249C56.2325 151.249 56.4758 151.294 56.6879 151.386C56.9 151.473 57.0643 151.604 57.1808 151.779C57.3014 151.954 57.3617 152.168 57.3617 152.422C57.3617 152.796 57.2141 153.089 56.9188 153.301C56.6234 153.509 56.1888 153.613 55.6148 153.613H53.3562ZM54.3607 152.852H55.5399C55.802 152.852 55.9995 152.81 56.1326 152.727C56.2699 152.64 56.3385 152.503 56.3385 152.315C56.3385 152.132 56.2699 151.997 56.1326 151.91C55.9995 151.818 55.802 151.773 55.5399 151.773H54.2858V151.036H55.3652C55.6106 151.036 55.7978 150.995 55.9267 150.912C56.0598 150.824 56.1264 150.693 56.1264 150.519C56.1264 150.348 56.0598 150.221 55.9267 150.138C55.7978 150.051 55.6106 150.007 55.3652 150.007H54.3607V152.852Z" fill="black"/>
<path d="M60.997 153.613V149.246H62.0077V153.613H60.997Z" fill="black"/>
<path d="M69.9772 153.613L71.9238 149.246H72.9221L74.8749 153.613H73.8143L72.2171 149.757H72.6164L71.0129 153.613H69.9772ZM70.9505 152.677L71.2188 151.91H73.4649L73.7394 152.677H70.9505Z" fill="black"/>
<path d="M78.1981 153.613V149.246H79.2088V152.79H81.3988V153.613H78.1981Z" fill="black"/>
<path d="M84.6401 152.247V151.467H86.4058V152.247H84.6401Z" fill="black"/>
<path d="M90.1103 153.613V149.246H90.9463L92.8056 152.328H92.3626L94.1907 149.246H95.0205L95.033 153.613H94.0846L94.0784 150.699H94.2531L92.7931 153.151H92.3376L90.8465 150.699H91.0586V153.613H90.1103Z" fill="black"/>
<path d="M100.88 153.688C100.26 153.688 99.7752 153.515 99.4258 153.17C99.0764 152.825 98.9017 152.332 98.9017 151.692V149.246H99.9125V151.654C99.9125 152.07 99.9977 152.37 100.168 152.553C100.339 152.736 100.578 152.827 100.886 152.827C101.194 152.827 101.433 152.736 101.603 152.553C101.774 152.37 101.859 152.07 101.859 151.654V149.246H102.857V151.692C102.857 152.332 102.683 152.825 102.333 153.17C101.984 153.515 101.499 153.688 100.88 153.688Z" fill="black"/>
<path d="M108.161 153.688C107.812 153.688 107.477 153.642 107.157 153.551C106.836 153.455 106.579 153.332 106.383 153.183L106.726 152.422C106.913 152.555 107.134 152.665 107.388 152.752C107.645 152.835 107.905 152.877 108.167 152.877C108.367 152.877 108.527 152.858 108.648 152.821C108.773 152.779 108.864 152.723 108.922 152.652C108.981 152.582 109.01 152.501 109.01 152.409C109.01 152.293 108.964 152.201 108.872 152.135C108.781 152.064 108.66 152.008 108.511 151.966C108.361 151.92 108.194 151.879 108.011 151.841C107.833 151.8 107.652 151.75 107.469 151.692C107.29 151.633 107.125 151.558 106.976 151.467C106.826 151.375 106.703 151.255 106.608 151.105C106.516 150.955 106.47 150.764 106.47 150.531C106.47 150.281 106.537 150.055 106.67 149.851C106.807 149.643 107.011 149.479 107.281 149.358C107.556 149.233 107.899 149.171 108.311 149.171C108.585 149.171 108.856 149.204 109.122 149.271C109.388 149.333 109.623 149.429 109.827 149.558L109.515 150.325C109.311 150.209 109.107 150.123 108.904 150.069C108.7 150.011 108.5 149.982 108.305 149.982C108.109 149.982 107.949 150.005 107.824 150.051C107.699 150.096 107.61 150.157 107.556 150.232C107.502 150.302 107.475 150.385 107.475 150.481C107.475 150.593 107.521 150.685 107.612 150.756C107.704 150.822 107.824 150.876 107.974 150.918C108.124 150.959 108.288 151.001 108.467 151.043C108.65 151.084 108.831 151.132 109.01 151.186C109.193 151.24 109.359 151.313 109.509 151.405C109.659 151.496 109.779 151.617 109.871 151.766C109.966 151.916 110.014 152.105 110.014 152.334C110.014 152.58 109.946 152.804 109.808 153.008C109.671 153.212 109.465 153.376 109.191 153.501C108.92 153.626 108.577 153.688 108.161 153.688Z" fill="black"/>
<path d="M114.569 153.613V151.829L114.8 152.44L112.878 149.246H113.951L115.424 151.698H114.806L116.285 149.246H117.277L115.355 152.44L115.58 151.829V153.613H114.569Z" fill="black"/>
<path d="M119.728 153.613L121.674 149.246H122.673L124.625 153.613H123.565L121.968 149.757H122.367L120.763 153.613H119.728ZM120.701 152.677L120.969 151.91H123.215L123.49 152.677H120.701Z" fill="black"/>
<path d="M128.759 153.613L127.33 149.246H128.379L129.62 153.114H129.096L130.394 149.246H131.33L132.578 153.114H132.072L133.345 149.246H134.312L132.883 153.613H131.798L130.693 150.219H130.98L129.845 153.613H128.759Z" fill="black"/>
<path d="M137.026 153.613L138.973 149.246H139.971L141.924 153.613H140.863L139.266 149.757H139.665L138.062 153.613H137.026ZM137.999 152.677L138.268 151.91H140.514L140.788 152.677H137.999Z" fill="black"/>
<path d="M145.247 153.613V149.246H147.137C147.528 149.246 147.865 149.31 148.148 149.439C148.431 149.564 148.649 149.745 148.803 149.982C148.957 150.219 149.034 150.502 149.034 150.831C149.034 151.155 148.957 151.436 148.803 151.673C148.649 151.906 148.431 152.085 148.148 152.209C147.865 152.334 147.528 152.397 147.137 152.397H145.808L146.258 151.954V153.613H145.247ZM148.023 153.613L146.932 152.028H148.011L149.115 153.613H148.023ZM146.258 152.066L145.808 151.592H147.081C147.393 151.592 147.626 151.525 147.78 151.392C147.934 151.255 148.011 151.068 148.011 150.831C148.011 150.589 147.934 150.402 147.78 150.269C147.626 150.136 147.393 150.069 147.081 150.069H145.808L146.258 149.589V152.066Z" fill="black"/>
<path d="M152.131 153.613L154.078 149.246H155.076L157.029 153.613H155.968L154.371 149.757H154.77L153.167 153.613H152.131ZM153.104 152.677L153.373 151.91H155.619L155.893 152.677H153.104Z" fill="black"/>
<path d="M163.347 149.246H164.357V153.613H163.347V149.246ZM161.363 153.613H160.352V149.246H161.363V153.613ZM163.422 151.823H161.288V150.968H163.422V151.823Z" fill="black"/>
</svg>
