<svg width="56" height="57" viewBox="0 0 56 57" fill="none" xmlns="http://www.w3.org/2000/svg">
<rect y="0.229248" width="56" height="56" rx="6.58824" fill="url(#paint0_linear_1460_4186)"/>
<path fill-rule="evenodd" clip-rule="evenodd" d="M29.0583 32.0556L27.0772 32.0652C26.9771 31.7302 27.0404 26.3991 27.041 25.2939C27.0414 24.452 26.884 24.0458 26.5056 23.5138C25.4365 22.0112 22.3628 20.5916 21.9377 18.9059C21.8006 19.059 21.7387 19.3571 21.502 19.6964C21.3054 19.978 21.176 20.0957 20.946 20.3281C19.7986 21.4878 17.9535 22.4507 17.1287 23.7967C16.6945 24.5052 16.7795 24.902 16.7795 25.8342C16.7795 26.8469 16.7315 32.6189 16.8 33.1091L23.9374 33.1108L23.9478 22.7333C24.3498 22.8849 25.4221 23.883 25.6353 24.1672C26.1886 24.9048 26.0244 25.8219 26.0244 26.9135C26.0244 27.9592 25.9703 32.472 26.0387 33.1021L30.0912 33.1104C30.1642 32.146 30.1005 28.1938 30.1005 26.9137C30.1005 25.6515 29.9334 24.95 30.4886 24.2027C30.7115 23.9027 31.8032 22.8585 32.1731 22.7339L32.1791 33.1001L39.3206 33.111C39.3895 32.2461 39.3331 27.1744 39.3331 25.888C39.3331 24.9709 39.3954 24.496 38.9986 23.813C37.8052 21.7585 35.0514 21.1596 34.2205 18.8701C33.8179 19.574 34.1194 19.4156 33.3324 20.2465C31.6724 21.9985 29.0806 22.8814 29.0819 25.1862C29.0823 26.0227 29.1299 31.735 29.0577 32.0554L29.0583 32.0556ZM17.7949 25.2404C17.7951 27.4222 17.7582 29.906 17.8018 32.0509C18.4114 32.0767 22.5829 32.0994 22.9276 32.029L22.9322 22.1595C22.9328 21.8092 22.9051 21.8405 22.6993 21.654C22.4084 21.3909 22.207 21.1578 21.9186 20.8714L20.8445 21.9004C19.797 22.8081 17.7949 23.9796 17.7949 25.2404ZM33.1975 21.8329L33.1939 32.0457C34.4623 32.0801 37.1668 32.0992 38.3279 32.0459L38.3309 25.5104C38.3309 24.2112 37.6198 23.7332 36.5534 22.9122C36.1126 22.5729 35.7645 22.303 35.3441 21.9635C34.8979 21.6034 34.6277 21.254 34.2251 20.8728C34.0057 20.9996 33.7072 21.4828 33.1975 21.8331V21.8329Z" fill="#BD8A2E"/>
<path fill-rule="evenodd" clip-rule="evenodd" d="M23.9396 20.7353C24.1908 16.6502 23.0458 17.5784 26.551 14.7597C26.837 14.5298 27.1186 14.3218 27.3433 14.0951C27.5063 13.9304 27.9594 13.4364 28.0719 13.3733C28.4992 13.7365 28.7243 14.079 29.5524 14.7459C30.0657 15.1591 30.6657 15.593 31.1422 16.0173C31.6254 16.4476 32.1657 16.8808 32.1777 17.8435C32.1898 18.8068 32.1474 19.7983 32.1833 20.7564C32.3926 20.6608 32.5556 20.4909 32.7314 20.346C33.4516 19.7525 33.1935 19.7362 33.1933 17.8996C33.1933 16.4494 32.6528 15.9427 31.96 15.2517C30.7439 14.0388 28.6797 13.1347 28.0643 11.3783C27.8352 11.7825 27.8508 12.051 27.3449 12.5852C26.1284 13.8706 24.1611 14.8882 23.2804 16.2937C22.9379 16.8402 22.9284 17.1591 22.9286 17.8998C22.9286 18.2947 22.8752 19.542 22.9373 19.8403C22.9855 20.0719 23.7042 20.6469 23.9398 20.7353H23.9396Z" fill="#BD8A2E"/>
<path fill-rule="evenodd" clip-rule="evenodd" d="M31.2727 35.6578C31.2729 36.5333 31.3458 40.0825 31.1802 40.6602C31.0546 41.0983 30.9533 41.0555 30.5726 41.2173C30.723 41.2975 31.9212 41.2748 32.1855 41.2366C31.8276 41.0762 31.7186 41.0352 31.5854 40.6103C31.3953 40.0046 31.4387 36.6312 31.4742 35.941L34.1984 41.3138C34.4093 41.0109 34.7252 40.1595 34.8834 39.7766L36.8845 35.0944C36.9514 35.9952 36.8997 39.4177 36.8993 40.5695C36.8993 41.156 36.6204 41.0294 36.1918 41.2173C36.3086 41.2836 38.6403 41.2834 38.9357 41.2392C38.2936 40.8728 38.2142 41.4284 38.2146 39.9758V35.8736C38.2144 34.3606 38.2512 34.9091 38.9136 34.5306L37.0239 34.5218C36.8121 34.522 36.5474 35.3394 36.4045 35.6883C36.2228 36.1323 36.0471 36.5457 35.8626 36.9797C35.5065 37.8178 35.0561 38.763 34.7817 39.5666C34.5325 39.3935 33.5806 37.289 33.4443 37.0277C33.2888 36.7294 32.2665 34.5604 32.112 34.5224L30.5543 34.5238C30.7171 34.7596 31.2721 35.1509 31.2723 35.658L31.2727 35.6578Z" fill="black"/>
<path fill-rule="evenodd" clip-rule="evenodd" d="M25.9192 34.9241C25.6348 36.086 25.0429 37.1599 24.581 38.272C24.4021 38.7027 23.7171 40.3309 23.4866 40.6877C23.274 41.0171 23.2086 41.0187 22.8442 41.2173C23.2245 41.2918 24.1157 41.2677 24.5337 41.2392C24.1651 41.0583 23.8484 41.0768 23.8717 40.5759C23.8838 40.3183 24.1 39.827 24.2323 39.624L27.8798 39.6164C28.0014 39.8693 28.2237 40.3731 28.196 40.6786C28.155 41.1284 27.7504 41.1224 27.384 41.246L30.3719 41.2482C29.7068 40.8949 29.7128 40.7351 29.3412 39.78C29.1826 39.3724 27.2682 34.4052 27.147 34.2745L25.9194 34.9237L25.9192 34.9241ZM24.3006 39.4353L27.8016 39.4452L26.1427 35.2664C26.0044 35.4057 24.3961 39.0874 24.3004 39.4353H24.3006Z" fill="black"/>
<path fill-rule="evenodd" clip-rule="evenodd" d="M18.0336 39.1929C17.8477 39.3093 17.2958 40.255 17.1823 40.4616C17.461 40.8724 18.3582 41.2308 19.0504 41.3321C19.9087 41.4575 20.7693 41.36 21.4191 40.9954C22.7032 40.2751 22.8964 38.3956 21.2183 37.5923C20.2672 37.1368 18.8171 37.1626 18.3998 36.2549C18.2338 35.8939 18.2507 35.4057 18.4145 35.0797C18.7459 34.4203 19.7063 34.3897 20.4178 34.7754C21.0881 35.1388 21.3666 35.6163 21.4237 36.5795L22.2932 35.2861C21.7714 34.4494 19.281 33.9807 18.06 34.8835C16.8784 35.7574 17.1157 37.5294 18.7928 38.2354C19.441 38.5084 20.3058 38.6075 20.8776 38.9047C21.1878 39.0659 21.4291 39.3063 21.4794 39.7053C21.7628 41.9537 18.0746 41.6838 18.0332 39.1929H18.0336Z" fill="black"/>
<path d="M9.34377 44.6056C9.25425 44.6056 9.16846 44.5939 9.0864 44.5704C9.00434 44.5459 8.93827 44.5145 8.88818 44.4761L8.9761 44.2811C9.02406 44.3152 9.08054 44.3434 9.14555 44.3658C9.21162 44.3871 9.27823 44.3978 9.34536 44.3978C9.39652 44.3978 9.43755 44.393 9.46845 44.3834C9.50042 44.3727 9.52387 44.3583 9.53879 44.3402C9.55371 44.3221 9.56117 44.3013 9.56117 44.2779C9.56117 44.248 9.54944 44.2246 9.526 44.2075C9.50255 44.1894 9.47165 44.175 9.43328 44.1644C9.39492 44.1527 9.35229 44.142 9.3054 44.1324C9.25958 44.1218 9.21322 44.109 9.16633 44.094C9.1205 44.0791 9.07841 44.0599 9.04004 44.0365C9.00168 44.0131 8.97024 43.9822 8.94573 43.9438C8.92229 43.9054 8.91056 43.8564 8.91056 43.7967C8.91056 43.7328 8.92761 43.6747 8.96172 43.6225C8.99688 43.5692 9.0491 43.5271 9.11837 43.4962C9.18871 43.4642 9.27663 43.4482 9.38213 43.4482C9.45247 43.4482 9.52174 43.4568 9.58994 43.4738C9.65814 43.4898 9.71835 43.5143 9.77057 43.5474L9.69065 43.744C9.63843 43.7141 9.58621 43.6923 9.53399 43.6784C9.48177 43.6635 9.43062 43.6561 9.38053 43.6561C9.33044 43.6561 9.28942 43.6619 9.25744 43.6736C9.22547 43.6854 9.20256 43.7008 9.18871 43.72C9.17485 43.7381 9.16793 43.7594 9.16793 43.7839C9.16793 43.8127 9.17965 43.8362 9.20309 43.8543C9.22654 43.8713 9.25744 43.8852 9.29581 43.8958C9.33417 43.9065 9.37627 43.9171 9.42209 43.9278C9.46898 43.9385 9.51534 43.9507 9.56117 43.9646C9.60806 43.9784 9.65068 43.9971 9.68905 44.0205C9.72741 44.044 9.75832 44.0749 9.78176 44.1132C9.80627 44.1516 9.81853 44.2001 9.81853 44.2587C9.81853 44.3216 9.80095 44.3791 9.76578 44.4313C9.73061 44.4836 9.67786 44.5257 9.60752 44.5576C9.53825 44.5896 9.45033 44.6056 9.34377 44.6056Z" fill="black"/>
<path d="M10.969 43.9182H11.5077V44.1196H10.969V43.9182ZM10.9882 44.3786H11.5972V44.5864H10.7308V43.4674H11.5764V43.6752H10.9882V44.3786Z" fill="black"/>
<path d="M12.5386 44.5864V43.4674H13.0229C13.1231 43.4674 13.2094 43.4839 13.2819 43.517C13.3544 43.5489 13.4103 43.5953 13.4497 43.6561C13.4892 43.7168 13.5089 43.7893 13.5089 43.8735C13.5089 43.9566 13.4892 44.0285 13.4497 44.0893C13.4103 44.1489 13.3544 44.1948 13.2819 44.2267C13.2094 44.2587 13.1231 44.2747 13.0229 44.2747H12.6824L12.7975 44.1612V44.5864H12.5386ZM13.2499 44.5864L12.9702 44.1804H13.2467L13.5297 44.5864H13.2499ZM12.7975 44.19L12.6824 44.0685H13.0085C13.0885 44.0685 13.1482 44.0514 13.1876 44.0173C13.227 43.9822 13.2467 43.9342 13.2467 43.8735C13.2467 43.8116 13.227 43.7637 13.1876 43.7296C13.1482 43.6955 13.0885 43.6784 13.0085 43.6784H12.6824L12.7975 43.5553V44.19Z" fill="black"/>
<path d="M14.3023 44.5864L14.8011 43.4674H15.0568L15.5572 44.5864H15.2854L14.8762 43.5985H14.9785L14.5677 44.5864H14.3023ZM14.5517 44.3466L14.6204 44.15H15.1959L15.2662 44.3466H14.5517Z" fill="black"/>
<path d="M16.4086 44.5864V43.4674H16.6228L17.0992 44.2571H16.9857L17.454 43.4674H17.6666L17.6698 44.5864H17.4269L17.4253 43.8399H17.47L17.096 44.4681H16.9793L16.5972 43.8399H16.6516V44.5864H16.4086Z" fill="black"/>
<path d="M18.6706 44.5864V43.4674H19.2173C19.358 43.4674 19.4635 43.4941 19.5338 43.5474C19.6052 43.6006 19.6409 43.671 19.6409 43.7584C19.6409 43.817 19.6266 43.8681 19.5978 43.9118C19.569 43.9544 19.5296 43.9875 19.4795 44.0109C19.4294 44.0344 19.3719 44.0461 19.3069 44.0461L19.3372 43.9806C19.4076 43.9806 19.4699 43.9923 19.5243 44.0157C19.5786 44.0381 19.6207 44.0717 19.6505 44.1164C19.6814 44.1612 19.6969 44.2161 19.6969 44.2811C19.6969 44.377 19.6591 44.4521 19.5834 44.5065C19.5077 44.5598 19.3964 44.5864 19.2493 44.5864H18.6706ZM18.928 44.3914H19.2301C19.2973 44.3914 19.3479 44.3807 19.382 44.3594C19.4172 44.337 19.4347 44.3019 19.4347 44.2539C19.4347 44.207 19.4172 44.1724 19.382 44.15C19.3479 44.1266 19.2973 44.1148 19.2301 44.1148H18.9088V43.9262H19.1854C19.2482 43.9262 19.2962 43.9155 19.3292 43.8942C19.3633 43.8719 19.3804 43.8383 19.3804 43.7935C19.3804 43.7498 19.3633 43.7173 19.3292 43.696C19.2962 43.6736 19.2482 43.6624 19.1854 43.6624H18.928V44.3914Z" fill="black"/>
<path d="M20.6283 44.5864V43.4674H20.8872V44.5864H20.6283Z" fill="black"/>
<path d="M22.9291 44.5864L23.4278 43.4674H23.6836L24.1839 44.5864H23.9122L23.503 43.5985H23.6053L23.1944 44.5864H22.9291ZM23.1785 44.3466L23.2472 44.15H23.8227L23.893 44.3466H23.1785Z" fill="black"/>
<path d="M25.0354 44.5864V43.4674H25.2943V44.3754H25.8554V44.5864H25.0354Z" fill="black"/>
<path d="M26.6859 44.2363V44.0365H27.1382V44.2363H26.6859Z" fill="black"/>
<path d="M28.0874 44.5864V43.4674H28.3016L28.7779 44.2571H28.6644L29.1328 43.4674H29.3454L29.3486 44.5864H29.1056L29.104 43.8399H29.1488L28.7747 44.4681H28.658L28.276 43.8399H28.3303V44.5864H28.0874Z" fill="black"/>
<path d="M30.8466 44.6056C30.6878 44.6056 30.5636 44.5614 30.4741 44.4729C30.3846 44.3844 30.3398 44.2582 30.3398 44.094V43.4674H30.5988V44.0845C30.5988 44.191 30.6206 44.2678 30.6643 44.3146C30.708 44.3615 30.7693 44.385 30.8482 44.385C30.927 44.385 30.9883 44.3615 31.032 44.3146C31.0757 44.2678 31.0975 44.191 31.0975 44.0845V43.4674H31.3533V44.094C31.3533 44.2582 31.3085 44.3844 31.219 44.4729C31.1295 44.5614 31.0053 44.6056 30.8466 44.6056Z" fill="black"/>
<path d="M32.7122 44.6056C32.6227 44.6056 32.5369 44.5939 32.4548 44.5704C32.3728 44.5459 32.3067 44.5145 32.2566 44.4761L32.3445 44.2811C32.3925 44.3152 32.449 44.3434 32.514 44.3658C32.58 44.3871 32.6466 44.3978 32.7138 44.3978C32.7649 44.3978 32.806 44.393 32.8369 44.3834C32.8688 44.3727 32.8923 44.3583 32.9072 44.3402C32.9221 44.3221 32.9296 44.3013 32.9296 44.2779C32.9296 44.248 32.9179 44.2246 32.8944 44.2075C32.871 44.1894 32.8401 44.175 32.8017 44.1644C32.7633 44.1527 32.7207 44.142 32.6738 44.1324C32.628 44.1218 32.5816 44.109 32.5347 44.094C32.4889 44.0791 32.4468 44.0599 32.4085 44.0365C32.3701 44.0131 32.3387 43.9822 32.3141 43.9438C32.2907 43.9054 32.279 43.8564 32.279 43.7967C32.279 43.7328 32.296 43.6747 32.3301 43.6225C32.3653 43.5692 32.4175 43.5271 32.4868 43.4962C32.5571 43.4642 32.645 43.4482 32.7505 43.4482C32.8209 43.4482 32.8901 43.4568 32.9584 43.4738C33.0266 43.4898 33.0868 43.5143 33.139 43.5474L33.0591 43.744C33.0068 43.7141 32.9546 43.6923 32.9024 43.6784C32.8502 43.6635 32.799 43.6561 32.7489 43.6561C32.6989 43.6561 32.6578 43.6619 32.6259 43.6736C32.5939 43.6854 32.571 43.7008 32.5571 43.72C32.5433 43.7381 32.5363 43.7594 32.5363 43.7839C32.5363 43.8127 32.5481 43.8362 32.5715 43.8543C32.595 43.8713 32.6259 43.8852 32.6642 43.8958C32.7026 43.9065 32.7447 43.9171 32.7905 43.9278C32.8374 43.9385 32.8838 43.9507 32.9296 43.9646C32.9765 43.9784 33.0191 43.9971 33.0575 44.0205C33.0958 44.044 33.1267 44.0749 33.1502 44.1132C33.1747 44.1516 33.1869 44.2001 33.1869 44.2587C33.1869 44.3216 33.1694 44.3791 33.1342 44.4313C33.099 44.4836 33.0463 44.5257 32.9759 44.5576C32.9067 44.5896 32.8187 44.6056 32.7122 44.6056Z" fill="black"/>
<path d="M34.3539 44.5864V44.1292L34.4131 44.2859L33.9207 43.4674H34.1957L34.5729 44.0956H34.4147L34.7935 43.4674H35.0477L34.5554 44.2859L34.6129 44.1292V44.5864H34.3539Z" fill="black"/>
<path d="M35.6756 44.5864L36.1744 43.4674H36.4301L36.9305 44.5864H36.6587L36.2495 43.5985H36.3518L35.941 44.5864H35.6756ZM35.925 44.3466L35.9937 44.15H36.5692L36.6395 44.3466H35.925Z" fill="black"/>
<path d="M37.9896 44.5864L37.6235 43.4674H37.8921L38.2102 44.4585H38.0759L38.4084 43.4674H38.6482L38.9679 44.4585H38.8384L39.1645 43.4674H39.4123L39.0462 44.5864H38.7681L38.4851 43.7168H38.5586L38.2677 44.5864H37.9896Z" fill="black"/>
<path d="M40.1076 44.5864L40.6064 43.4674H40.8621L41.3625 44.5864H41.0907L40.6815 43.5985H40.7838L40.373 44.5864H40.1076ZM40.357 44.3466L40.4257 44.15H41.0012L41.0715 44.3466H40.357Z" fill="black"/>
<path d="M42.2139 44.5864V43.4674H42.6982C42.7984 43.4674 42.8847 43.4839 42.9572 43.517C43.0297 43.5489 43.0856 43.5953 43.1251 43.6561C43.1645 43.7168 43.1842 43.7893 43.1842 43.8735C43.1842 43.9566 43.1645 44.0285 43.1251 44.0893C43.0856 44.1489 43.0297 44.1948 42.9572 44.2267C42.8847 44.2587 42.7984 44.2747 42.6982 44.2747H42.3578L42.4729 44.1612V44.5864H42.2139ZM42.9252 44.5864L42.6455 44.1804H42.922L43.205 44.5864H42.9252ZM42.4729 44.19L42.3578 44.0685H42.6839C42.7638 44.0685 42.8235 44.0514 42.8629 44.0173C42.9023 43.9822 42.922 43.9342 42.922 43.8735C42.922 43.8116 42.9023 43.7637 42.8629 43.7296C42.8235 43.6955 42.7638 43.6784 42.6839 43.6784H42.3578L42.4729 43.5553V44.19Z" fill="black"/>
<path d="M43.9776 44.5864L44.4764 43.4674H44.7321L45.2325 44.5864H44.9607L44.5515 43.5985H44.6538L44.243 44.5864H43.9776ZM44.227 44.3466L44.2957 44.15H44.8712L44.9415 44.3466H44.227Z" fill="black"/>
<path d="M46.8512 43.4674H47.1102V44.5864H46.8512V43.4674ZM46.3429 44.5864H46.0839V43.4674H46.3429V44.5864ZM46.8704 44.1276H46.3237V43.9086H46.8704V44.1276Z" fill="black"/>
<defs>
<linearGradient id="paint0_linear_1460_4186" x1="1.2964e-06" y1="56.2292" x2="73" y2="-30.7708" gradientUnits="userSpaceOnUse">
<stop stop-color="white"/>
<stop offset="0.384642" stop-color="#F8F5FD"/>
<stop offset="1" stop-color="#B398EA"/>
</linearGradient>
</defs>
</svg>
