<svg width="120" height="120" viewBox="0 0 120 120" fill="none" xmlns="http://www.w3.org/2000/svg">
<rect x="0.75" y="0.75" width="118.5" height="118.5" rx="11.25" stroke="#BD8A2E" stroke-width="1.5"/>
<path fill-rule="evenodd" clip-rule="evenodd" d="M62.6002 69.8032L57.4451 69.8283C57.1847 68.9565 57.3494 55.085 57.351 52.2091C57.3521 50.0184 56.9426 48.9614 55.9578 47.5771C53.1761 43.6673 45.1781 39.9735 44.072 35.5872C43.7153 35.9857 43.5543 36.7613 42.9382 37.6441C42.4267 38.3768 42.0899 38.6833 41.4916 39.2878C38.5059 42.3054 33.705 44.811 31.5587 48.3134C30.429 50.1569 30.6502 51.1893 30.6502 53.6149C30.6502 56.2502 30.5253 71.2691 30.7036 72.5447L49.2751 72.5489L49.3023 45.5463C50.3483 45.9407 53.1384 48.5378 53.6933 49.2773C55.133 51.1966 54.7058 53.583 54.7058 56.4233C54.7058 59.1444 54.5651 70.8868 54.7429 72.5264L65.2878 72.5478C65.4776 70.0386 65.3118 59.7547 65.3118 56.4238C65.3118 53.1395 64.8772 51.3143 66.3217 49.3699C66.9017 48.589 69.7425 45.8722 70.7048 45.5479L70.7205 72.5211L89.303 72.5494C89.4824 70.299 89.3354 57.1021 89.3354 53.755C89.3354 51.3687 89.4976 50.1329 88.4652 48.3558C85.3597 43.0099 78.1944 41.4514 76.0324 35.4941C74.9849 37.3256 75.7693 36.9135 73.7213 39.0755C69.402 43.6343 62.6582 45.9318 62.6613 51.9288C62.6624 54.1054 62.7863 68.9691 62.5986 69.8027L62.6002 69.8032ZM33.2923 52.07C33.2929 57.747 33.1966 64.2099 33.3101 69.7912C34.8963 69.8581 45.7508 69.9172 46.6477 69.7342L46.6597 44.0532C46.6613 43.1417 46.5891 43.2233 46.0536 42.7379C45.2968 42.0534 44.7728 41.4467 44.0223 40.7015L41.2275 43.3791C38.5017 45.7409 33.2923 48.7893 33.2923 52.07ZM73.3704 43.2034L73.361 69.7776C76.6615 69.867 83.6988 69.9167 86.72 69.7781L86.7279 52.7724C86.7279 49.3918 84.8776 48.1482 82.1026 46.0118C80.9557 45.129 80.0499 44.4266 78.9558 43.5433C77.7948 42.6062 77.0919 41.6972 76.0444 40.7051C75.4733 41.0351 74.6967 42.2924 73.3704 43.2039V43.2034Z" fill="#BD8A2E"/>
<path fill-rule="evenodd" clip-rule="evenodd" d="M49.281 40.3474C49.9347 29.7178 46.9553 32.1329 56.0761 24.7986C56.8203 24.2003 57.553 23.659 58.1377 23.0691C58.5618 22.6408 59.7406 21.3553 60.0335 21.1911C61.1453 22.1361 61.7311 23.0273 63.8857 24.7625C65.2214 25.8378 66.7825 26.9669 68.0225 28.0709C69.2798 29.1906 70.6855 30.3176 70.7169 32.8227C70.7483 35.3294 70.6379 37.9092 70.7315 40.4023C71.276 40.1533 71.7001 39.7114 72.1577 39.3343C74.0316 37.79 73.36 37.7476 73.3595 32.9686C73.3595 29.1953 71.9532 27.8769 70.1505 26.0789C66.986 22.9227 61.615 20.5703 60.0136 16C59.4174 17.0517 59.4582 17.7504 58.1418 19.1405C54.9762 22.485 49.8573 25.1328 47.5656 28.79C46.6745 30.212 46.6499 31.042 46.6504 32.9691C46.6504 33.9968 46.5113 37.2424 46.6729 38.0185C46.7984 38.621 48.6686 40.1172 49.2815 40.3474H49.281Z" fill="#BD8A2E"/>
<path fill-rule="evenodd" clip-rule="evenodd" d="M68.3619 79.1759C68.3624 81.454 68.5522 90.6893 68.1213 92.1923C67.7944 93.3324 67.5309 93.221 66.5403 93.642C66.9315 93.8507 70.0495 93.7916 70.7372 93.6922C69.8058 93.2749 69.5224 93.1682 69.1756 92.0626C68.6809 90.4864 68.7939 81.7086 68.8864 79.9127L75.9749 93.893C76.5235 93.1049 77.3456 90.8896 77.7572 89.8933L82.964 77.7099C83.1382 80.0539 83.0037 88.9592 83.0027 91.9564C83.0027 93.4825 82.2768 93.153 81.1618 93.642C81.4657 93.8146 87.5328 93.8141 88.3015 93.699C86.6306 92.7456 86.424 94.1911 86.4251 90.4116V79.7375C86.4246 75.8005 86.5203 77.2278 88.244 76.243L83.327 76.22C82.7757 76.2205 82.087 78.3475 81.7151 79.2554C81.2424 80.4106 80.7853 81.4864 80.3052 82.6155C79.3785 84.7963 78.2065 87.2559 77.4926 89.3468C76.8441 88.8965 74.3673 83.4204 74.0127 82.7405C73.6079 81.9644 70.948 76.3204 70.5458 76.2215L66.4927 76.2252C66.9164 76.8387 68.3603 77.8569 68.3608 79.1764L68.3619 79.1759Z" fill="black"/>
<path fill-rule="evenodd" clip-rule="evenodd" d="M54.4317 77.2671C53.6917 80.2904 52.1515 83.0847 50.9497 85.9783C50.4842 87.0991 48.7019 91.3357 48.102 92.264C47.5487 93.1212 47.3788 93.1254 46.4306 93.6421C47.4201 93.8361 49.739 93.7734 50.8268 93.6991C49.8676 93.2284 49.0434 93.2765 49.1041 91.9733C49.1355 91.3028 49.6982 90.0246 50.0423 89.4964L59.5334 89.4765C59.8498 90.1345 60.4282 91.4456 60.356 92.2405C60.2493 93.4109 59.1966 93.3952 58.2432 93.7169L66.0178 93.7226C64.2872 92.8032 64.3029 92.3875 63.3359 89.9023C62.9233 88.8417 57.9419 75.9167 57.6266 75.5768L54.4322 77.266L54.4317 77.2671ZM50.2201 89.0053L59.3299 89.031L55.0132 78.1577C54.6534 78.5201 50.4685 88.1001 50.2196 89.0053H50.2201Z" fill="black"/>
<path fill-rule="evenodd" clip-rule="evenodd" d="M33.9136 88.3747C33.4299 88.6775 31.9938 91.1381 31.6983 91.6757C32.4237 92.7447 34.7583 93.6772 36.5594 93.9407C38.7925 94.2671 41.0319 94.0134 42.7227 93.0647C46.064 91.1904 46.5666 86.3 42.2003 84.2096C39.7255 83.0246 35.9522 83.0915 34.8665 80.7297C34.4345 79.7905 34.4785 78.5201 34.9047 77.6719C35.7671 75.956 38.2659 75.8765 40.1172 76.8801C41.8614 77.8256 42.5862 79.0682 42.7348 81.5743L44.9972 78.209C43.6395 76.0318 37.1593 74.8122 33.9822 77.1614C30.9076 79.4354 31.5252 84.0459 35.8889 85.8832C37.5756 86.5934 39.8259 86.8512 41.3138 87.6247C42.1208 88.0441 42.7489 88.6696 42.8796 89.7077C43.617 95.5583 34.0203 94.856 33.9126 88.3747H33.9136Z" fill="black"/>
<path d="M11.3019 102.459C11.069 102.459 10.8457 102.428 10.6322 102.367C10.4187 102.303 10.2468 102.222 10.1165 102.122L10.3452 101.614C10.47 101.703 10.617 101.777 10.7861 101.835C10.958 101.89 11.1314 101.918 11.3061 101.918C11.4392 101.918 11.5459 101.906 11.6263 101.881C11.7095 101.853 11.7705 101.815 11.8093 101.768C11.8482 101.721 11.8676 101.667 11.8676 101.606C11.8676 101.528 11.8371 101.467 11.7761 101.423C11.7151 101.376 11.6347 101.338 11.5348 101.311C11.435 101.28 11.3241 101.252 11.2021 101.228C11.0828 101.2 10.9622 101.167 10.8402 101.128C10.721 101.089 10.6114 101.039 10.5116 100.978C10.4118 100.917 10.33 100.837 10.2662 100.737C10.2052 100.637 10.1747 100.509 10.1747 100.354C10.1747 100.188 10.2191 100.037 10.3078 99.9006C10.3993 99.762 10.5352 99.6525 10.7154 99.572C10.8984 99.4889 11.1272 99.4473 11.4017 99.4473C11.5847 99.4473 11.765 99.4694 11.9425 99.5138C12.1199 99.5554 12.2766 99.6192 12.4125 99.7052L12.2045 100.217C12.0686 100.139 11.9327 100.082 11.7969 100.046C11.661 100.007 11.5279 99.988 11.3976 99.988C11.2672 99.988 11.1605 100.003 11.0773 100.034C10.9941 100.064 10.9345 100.104 10.8984 100.154C10.8624 100.202 10.8444 100.257 10.8444 100.321C10.8444 100.396 10.8749 100.457 10.9359 100.504C10.9969 100.548 11.0773 100.584 11.1771 100.612C11.2769 100.64 11.3865 100.667 11.5057 100.695C11.6277 100.723 11.7483 100.755 11.8676 100.791C11.9896 100.827 12.1005 100.875 12.2003 100.936C12.3002 100.997 12.3806 101.078 12.4416 101.178C12.5054 101.277 12.5373 101.404 12.5373 101.556C12.5373 101.72 12.4915 101.869 12.4 102.005C12.3085 102.141 12.1712 102.251 11.9882 102.334C11.808 102.417 11.5792 102.459 11.3019 102.459Z" fill="black"/>
<path d="M15.5308 100.67H16.9325V101.194H15.5308V100.67ZM15.5807 101.868H17.1654V102.409H14.911V99.4972H17.1114V100.038H15.5807V101.868Z" fill="black"/>
<path d="M19.6149 102.409V99.4972H20.8752C21.1359 99.4972 21.3605 99.5402 21.5491 99.6261C21.7376 99.7093 21.8832 99.8299 21.9858 99.988C22.0884 100.146 22.1397 100.335 22.1397 100.554C22.1397 100.77 22.0884 100.957 21.9858 101.115C21.8832 101.27 21.7376 101.39 21.5491 101.473C21.3605 101.556 21.1359 101.598 20.8752 101.598H19.9893L20.2888 101.302V102.409H19.6149ZM21.4659 102.409L20.738 101.352H21.4576L22.1938 102.409H21.4659ZM20.2888 101.377L19.9893 101.061H20.8378C21.0458 101.061 21.2011 101.017 21.3037 100.928C21.4063 100.837 21.4576 100.712 21.4576 100.554C21.4576 100.393 21.4063 100.268 21.3037 100.179C21.2011 100.091 21.0458 100.046 20.8378 100.046H19.9893L20.2888 99.7259V101.377Z" fill="black"/>
<path d="M24.2043 102.409L25.502 99.4972H26.1675L27.4694 102.409H26.7623L25.6975 99.8383H25.9637L24.8947 102.409H24.2043ZM24.8531 101.785L25.032 101.273H26.5294L26.7124 101.785H24.8531Z" fill="black"/>
<path d="M29.6849 102.409V99.4972H30.2422L31.4817 101.552H31.1864L32.4051 99.4972H32.9583L32.9667 102.409H32.3344L32.3303 100.466H32.4467L31.4734 102.101H31.1698L30.1757 100.466H30.3171V102.409H29.6849Z" fill="black"/>
<path d="M35.5708 102.409V99.4972H36.9933C37.3594 99.4972 37.6339 99.5665 37.8169 99.7052C38.0027 99.8438 38.0956 100.027 38.0956 100.254C38.0956 100.407 38.0581 100.54 37.9833 100.654C37.9084 100.764 37.8058 100.85 37.6755 100.911C37.5451 100.972 37.3954 101.003 37.2263 101.003L37.3053 100.832C37.4883 100.832 37.6505 100.863 37.7919 100.924C37.9334 100.982 38.0429 101.069 38.1205 101.186C38.201 101.302 38.2412 101.445 38.2412 101.614C38.2412 101.864 38.1427 102.059 37.9458 102.201C37.749 102.339 37.4592 102.409 37.0765 102.409H35.5708ZM36.2405 101.901H37.0266C37.2013 101.901 37.333 101.874 37.4218 101.818C37.5133 101.76 37.559 101.668 37.559 101.544C37.559 101.422 37.5133 101.331 37.4218 101.273C37.333 101.212 37.2013 101.182 37.0266 101.182H36.1906V100.691H36.9101C37.0737 100.691 37.1985 100.663 37.2845 100.608C37.3732 100.55 37.4176 100.462 37.4176 100.346C37.4176 100.232 37.3732 100.147 37.2845 100.092C37.1985 100.034 37.0737 100.005 36.9101 100.005H36.2405V101.901Z" fill="black"/>
<path d="M40.6647 102.409V99.4972H41.3385V102.409H40.6647Z" fill="black"/>
<path d="M46.6515 102.409L47.9492 99.4972H48.6147L49.9166 102.409H49.2095L48.1447 99.8383H48.4109L47.3419 102.409H46.6515ZM47.3003 101.785L47.4792 101.273H48.9766L49.1596 101.785H47.3003Z" fill="black"/>
<path d="M52.1321 102.409V99.4972H52.8059V101.86H54.2658V102.409H52.1321Z" fill="black"/>
<path d="M56.4267 101.498V100.978H57.6039V101.498H56.4267Z" fill="black"/>
<path d="M60.0735 102.409V99.4972H60.6309L61.8704 101.552H61.5751L62.7938 99.4972H63.347L63.3553 102.409H62.7231L62.7189 100.466H62.8354L61.8621 102.101H61.5584L60.5643 100.466H60.7057V102.409H60.0735Z" fill="black"/>
<path d="M67.253 102.459C66.8399 102.459 66.5168 102.344 66.2839 102.113C66.051 101.883 65.9345 101.555 65.9345 101.128V99.4972H66.6083V101.103C66.6083 101.38 66.6652 101.58 66.7789 101.702C66.8925 101.824 67.052 101.885 67.2572 101.885C67.4624 101.885 67.6218 101.824 67.7355 101.702C67.8492 101.58 67.9061 101.38 67.9061 101.103V99.4972H68.5716V101.128C68.5716 101.555 68.4551 101.883 68.2222 102.113C67.9893 102.344 67.6662 102.459 67.253 102.459Z" fill="black"/>
<path d="M72.1075 102.459C71.8745 102.459 71.6513 102.428 71.4378 102.367C71.2243 102.303 71.0523 102.222 70.922 102.122L71.1508 101.614C71.2756 101.703 71.4225 101.777 71.5917 101.835C71.7636 101.89 71.9369 101.918 72.1116 101.918C72.2447 101.918 72.3515 101.906 72.4319 101.881C72.5151 101.853 72.5761 101.815 72.6149 101.768C72.6537 101.721 72.6731 101.667 72.6731 101.606C72.6731 101.528 72.6426 101.467 72.5816 101.423C72.5206 101.376 72.4402 101.338 72.3404 101.311C72.2406 101.28 72.1296 101.252 72.0076 101.228C71.8884 101.2 71.7678 101.167 71.6458 101.128C71.5265 101.089 71.417 101.039 71.3172 100.978C71.2173 100.917 71.1355 100.837 71.0718 100.737C71.0108 100.637 70.9803 100.509 70.9803 100.354C70.9803 100.188 71.0246 100.037 71.1134 99.9006C71.2049 99.762 71.3407 99.6525 71.521 99.572C71.704 99.4889 71.9328 99.4473 72.2073 99.4473C72.3903 99.4473 72.5705 99.4694 72.748 99.5138C72.9255 99.5554 73.0822 99.6192 73.218 99.7052L73.0101 100.217C72.8742 100.139 72.7383 100.082 72.6024 100.046C72.4666 100.007 72.3335 99.988 72.2031 99.988C72.0728 99.988 71.966 100.003 71.8829 100.034C71.7997 100.064 71.74 100.104 71.704 100.154C71.6679 100.202 71.6499 100.257 71.6499 100.321C71.6499 100.396 71.6804 100.457 71.7414 100.504C71.8024 100.548 71.8829 100.584 71.9827 100.612C72.0825 100.64 72.192 100.667 72.3113 100.695C72.4333 100.723 72.5539 100.755 72.6731 100.791C72.7952 100.827 72.9061 100.875 73.0059 100.936C73.1057 100.997 73.1861 101.078 73.2472 101.178C73.3109 101.277 73.3428 101.404 73.3428 101.556C73.3428 101.72 73.2971 101.869 73.2056 102.005C73.114 102.141 72.9768 102.251 72.7938 102.334C72.6135 102.417 72.3848 102.459 72.1075 102.459Z" fill="black"/>
<path d="M76.3794 102.409V101.219L76.5333 101.627L75.2522 99.4972H75.9676L76.9492 101.132H76.5375L77.5233 99.4972H78.1846L76.9035 101.627L77.0532 101.219V102.409H76.3794Z" fill="black"/>
<path d="M79.8185 102.409L81.1162 99.4972H81.7817L83.0837 102.409H82.3765L81.3117 99.8383H81.5779L80.509 102.409H79.8185ZM80.4674 101.785L80.6462 101.273H82.1436L82.3266 101.785H80.4674Z" fill="black"/>
<path d="M85.8395 102.409L84.8869 99.4972H85.5857L86.4135 102.076H86.0641L86.9292 99.4972H87.5531L88.385 102.076H88.0481L88.8966 99.4972H89.5414L88.5888 102.409H87.8651L87.1289 100.146H87.3202L86.5632 102.409H85.8395Z" fill="black"/>
<path d="M91.3507 102.409L92.6485 99.4972H93.314L94.6159 102.409H93.9088L92.844 99.8383H93.1102L92.0412 102.409H91.3507ZM91.9996 101.785L92.1784 101.273H93.6758L93.8589 101.785H91.9996Z" fill="black"/>
<path d="M96.8313 102.409V99.4972H98.0916C98.3523 99.4972 98.5769 99.5402 98.7654 99.6261C98.954 99.7093 99.0996 99.8299 99.2022 99.988C99.3048 100.146 99.3561 100.335 99.3561 100.554C99.3561 100.77 99.3048 100.957 99.2022 101.115C99.0996 101.27 98.954 101.39 98.7654 101.473C98.5769 101.556 98.3523 101.598 98.0916 101.598H97.2057L97.5051 101.302V102.409H96.8313ZM98.6823 102.409L97.9544 101.352H98.6739L99.4102 102.409H98.6823ZM97.5051 101.377L97.2057 101.061H98.0542C98.2621 101.061 98.4174 101.017 98.52 100.928C98.6226 100.837 98.6739 100.712 98.6739 100.554C98.6739 100.393 98.6226 100.268 98.52 100.179C98.4174 100.091 98.2621 100.046 98.0542 100.046H97.2057L97.5051 99.7259V101.377Z" fill="black"/>
<path d="M101.421 102.409L102.718 99.4972H103.384L104.686 102.409H103.979L102.914 99.8383H103.18L102.111 102.409H101.421ZM102.07 101.785L102.248 101.273H103.746L103.929 101.785H102.07Z" fill="black"/>
<path d="M108.898 99.4972H109.572V102.409H108.898V99.4972ZM107.575 102.409H106.901V99.4972H107.575V102.409ZM108.948 101.215H107.525V100.645H108.948V101.215Z" fill="black"/>
</svg>
