<svg width="30" height="31" viewBox="0 0 30 31" fill="none" xmlns="http://www.w3.org/2000/svg">
<path d="M20.75 7.50425C19.8957 6.52866 19.4248 5.276 19.425 3.97925H15.5625V19.4792C15.5333 20.3182 15.1794 21.1131 14.5753 21.6961C13.9713 22.2791 13.1644 22.6048 12.325 22.6042C10.55 22.6042 9.07495 21.1542 9.07495 19.3542C9.07495 17.2042 11.15 15.5917 13.2875 16.2542V12.3042C8.97495 11.7292 5.19995 15.0792 5.19995 19.3542C5.19995 23.5167 8.64995 26.4792 12.3125 26.4792C16.2375 26.4792 19.425 23.2917 19.425 19.3542V11.4917C20.9912 12.6166 22.8717 13.2201 24.8 13.2167V9.35425C24.8 9.35425 22.45 9.46675 20.75 7.50425Z" fill="url(#paint0_linear_1460_1920)"/>
<defs>
<linearGradient id="paint0_linear_1460_1920" x1="4.83624" y1="26.4792" x2="25.186" y2="26.0133" gradientUnits="userSpaceOnUse">
<stop offset="0.1" stop-color="#7B4CDB"/>
<stop offset="1" stop-color="#BDA5ED"/>
</linearGradient>
</defs>
</svg>
